<?xml version="1.0" encoding="utf-8"?>
<!-- Generator: Adobe Illustrator 28.2.0, SVG Export Plug-In . SVG Version: 6.00 Build 0)  -->
<svg version="1.1" id="Layer_1" xmlns="http://www.w3.org/2000/svg" xmlns:xlink="http://www.w3.org/1999/xlink" x="0px" y="0px"
	 viewBox="0 0 512 512" style="enable-background:new 0 0 512 512;" xml:space="preserve">
<style type="text/css">
	.st0{fill:#ED1C24;}
	.st1{fill:#FFFFFF;}
	.st2{fill:#F15A29;}
	.st3{fill:#FBB040;}
	.st4{fill:#FFF200;}
	.st5{fill:#00A651;}
	.st6{fill:#00AEEF;}
	.st7{fill:#2E3192;}
	.st8{fill:#662D91;}
	.st9{fill:#636363;}
</style>
<path class="st0" d="M295.29,93.12c-20.89,20.89-28.99,49.72-24.32,76.77c-4.86-0.84-9.86-1.28-14.97-1.28s-10.11,0.44-14.97,1.28
	c4.67-27.05-3.4301-55.88-24.32-76.77C205.93,82.35,193.04,74.97,179.38,71c14.85-27.03,43.59-45.35,76.62-45.35
	S317.77,43.97,332.62,71C318.96,74.97,306.07,82.35,295.29,93.12z"/>
<path class="st1" d="M241.03,169.89c-12.98,2.24-24.98,7.34-35.32,14.6299c-22.44-15.81-37.1-41.93-37.1-71.48
	c0-15.24,3.9-29.57,10.77-42.04c13.66,3.97,26.55,11.35,37.33,22.12C237.6,114.01,245.7,142.84,241.03,169.89z"/>
<path class="st2" d="M205.71,184.52c-8.22,5.79-15.4,12.97-21.19,21.19c-15.81-22.44-41.93-37.1-71.48-37.1
	c-15.24,0-29.57,3.9-42.04,10.77c-8.61-29.62-1.23-62.91,22.12-86.26c23.35-23.35,56.64-30.73,86.26-22.12
	c-6.87,12.47-10.77,26.8-10.77,42.04C168.61,142.59,183.27,168.71,205.71,184.52z"/>
<path class="st1" d="M184.52,205.71c-7.29,10.34-12.39,22.34-14.63,35.32c-27.05,4.67-55.88-3.43-76.77-24.32
	C82.35,205.93,74.97,193.04,71,179.38c12.47-6.87,26.8-10.77,42.04-10.77C142.59,168.61,168.71,183.27,184.52,205.71z"/>
<path class="st3" d="M168.61,256c0,5.11,0.44,10.11,1.28,14.97c-27.05-4.67-55.88,3.43-76.77,24.32
	C82.35,306.07,74.97,318.96,71,332.62C43.97,317.77,25.65,289.03,25.65,256c0-33.03,18.3199-61.77,45.35-76.62
	c3.97,13.66,11.35,26.55,22.12,37.33c20.89,20.89,49.72,28.9901,76.77,24.32C169.05,245.89,168.61,250.89,168.61,256z"/>
<path class="st1" d="M184.52,306.29c-15.81,22.44-41.93,37.1-71.48,37.1c-15.24,0-29.57-3.9-42.04-10.77
	c3.97-13.66,11.35-26.55,22.12-37.33c20.89-20.89,49.72-28.99,76.77-24.32C172.13,283.95,177.23,295.95,184.52,306.29z"/>
<path class="st4" d="M168.61,398.96c0,15.2401,3.9,29.57,10.77,42.04c-29.62,8.61-62.91,1.23-86.26-22.12
	C69.77,395.53,62.39,362.24,71,332.62c12.47,6.87,26.8,10.77,42.04,10.77c29.55,0,55.67-14.66,71.48-37.1
	c5.79,8.22,12.97,15.4,21.19,21.19C183.27,343.29,168.61,369.41,168.61,398.96z"/>
<path class="st1" d="M216.71,418.88c-10.78,10.77-23.67,18.15-37.33,22.12c-6.87-12.47-10.77-26.8-10.77-42.04
	c0-29.55,14.66-55.67,37.1-71.48c10.34,7.29,22.34,12.39,35.32,14.63C245.7,369.16,237.6,397.99,216.71,418.88z"/>
<path class="st5" d="M332.62,441c-14.85,27.03-43.59,45.35-76.62,45.35s-61.77-18.32-76.62-45.35
	c13.66-3.97,26.55-11.35,37.33-22.12c20.89-20.89,28.99-49.72,24.32-76.77c4.86,0.84,9.86,1.28,14.97,1.28s10.11-0.44,14.97-1.28
	c-4.67,27.05,3.4301,55.88,24.32,76.77C306.07,429.65,318.96,437.03,332.62,441z"/>
<path class="st1" d="M343.39,398.96c0,15.2401-3.9,29.57-10.77,42.04c-13.66-3.97-26.55-11.35-37.33-22.12
	c-20.89-20.89-28.99-49.72-24.32-76.77c12.98-2.24,24.98-7.34,35.32-14.63C328.73,343.29,343.39,369.41,343.39,398.96z"/>
<path class="st6" d="M418.88,418.88c-23.35,23.35-56.64,30.73-86.26,22.12c6.87-12.47,10.77-26.8,10.77-42.04
	c0-29.55-14.66-55.67-37.1-71.48c8.22-5.79,15.4-12.97,21.19-21.19c15.81,22.44,41.93,37.1,71.48,37.1
	c15.24,0,29.57-3.9,42.04-10.77C449.61,362.24,442.23,395.53,418.88,418.88z"/>
<path class="st1" d="M441,332.62c-12.47,6.87-26.8,10.77-42.04,10.77c-29.55,0-55.67-14.66-71.48-37.1
	c7.29-10.34,12.39-22.34,14.63-35.32c27.05-4.67,55.88,3.43,76.77,24.32C429.65,306.07,437.03,318.96,441,332.62z"/>
<path class="st7" d="M486.35,256c0,33.03-18.3199,61.77-45.35,76.62c-3.97-13.66-11.35-26.55-22.12-37.33
	c-20.89-20.89-49.72-28.99-76.77-24.32c0.84-4.86,1.28-9.86,1.28-14.97s-0.44-10.11-1.28-14.97c27.05,4.67,55.88-3.43,76.77-24.32
	c10.77-10.78,18.15-23.67,22.12-37.33C468.03,194.23,486.35,222.97,486.35,256z"/>
<path class="st1" d="M441,179.38c-3.97,13.66-11.35,26.55-22.12,37.33c-20.89,20.89-49.72,28.9901-76.77,24.32
	c-2.24-12.98-7.34-24.98-14.63-35.32c15.81-22.44,41.93-37.1,71.48-37.1C414.2,168.61,428.53,172.51,441,179.38z"/>
<path class="st1" d="M343.39,113.04c0,29.55-14.66,55.67-37.1,71.48c-10.34-7.29-22.34-12.39-35.32-14.6299
	c-4.67-27.05,3.4301-55.88,24.32-76.77c10.78-10.77,23.67-18.15,37.33-22.12C339.49,83.47,343.39,97.8,343.39,113.04z"/>
<path d="M343.39,256c0,5.11-0.44,10.11-1.28,14.97c-2.24,12.98-7.34,24.98-14.63,35.32c-5.79,8.22-12.97,15.4-21.19,21.19
	c-10.34,7.29-22.34,12.39-35.32,14.63c-4.86,0.84-9.86,1.28-14.97,1.28s-10.11-0.44-14.97-1.28c-12.98-2.24-24.98-7.34-35.32-14.63
	c-8.22-5.79-15.4-12.97-21.19-21.19c-7.29-10.34-12.39-22.34-14.63-35.32c-0.84-4.86-1.28-9.86-1.28-14.97s0.44-10.11,1.28-14.97
	c2.24-12.98,7.34-24.98,14.63-35.32c5.79-8.22,12.97-15.4,21.19-21.19c10.34-7.29,22.34-12.39,35.32-14.6299
	c4.86-0.84,9.86-1.28,14.97-1.28s10.11,0.44,14.97,1.28c12.98,2.24,24.98,7.34,35.32,14.6299c8.22,5.79,15.4,12.97,21.19,21.19
	c7.29,10.34,12.39,22.34,14.63,35.32C342.95,245.89,343.39,250.89,343.39,256z"/>
<path class="st8" d="M441,179.38c-12.47-6.87-26.8-10.77-42.04-10.77c-29.55,0-55.67,14.66-71.48,37.1
	c-5.79-8.22-12.97-15.4-21.19-21.19c22.44-15.81,37.1-41.93,37.1-71.48c0-15.24-3.9-29.57-10.77-42.04
	c29.62-8.61,62.91-1.23,86.26,22.12C442.23,116.47,449.61,149.76,441,179.38z"/>
<circle class="st9" cx="256" cy="181.4826" r="4.6196"/>
<circle class="st9" cx="203.3082" cy="203.3082" r="4.6196"/>
<circle class="st9" cx="181.4826" cy="256" r="4.6196"/>
<circle class="st9" cx="203.3082" cy="308.6918" r="4.6196"/>
<circle class="st9" cx="256" cy="330.5174" r="4.6196"/>
<circle class="st9" cx="308.6918" cy="308.6918" r="4.6196"/>
<circle class="st9" cx="330.5174" cy="256" r="4.6196"/>
<circle class="st9" cx="308.6918" cy="203.3082" r="4.6196"/>
<circle class="st9" cx="227.4834" cy="187.1549" r="4.6196"/>
<circle class="st9" cx="187.1549" cy="227.4834" r="4.6196"/>
<circle class="st9" cx="187.1549" cy="284.5166" r="4.6196"/>
<circle class="st9" cx="227.4834" cy="324.8451" r="4.6196"/>
<circle class="st9" cx="284.5166" cy="324.8451" r="4.6196"/>
<circle class="st9" cx="324.8451" cy="284.5166" r="4.6196"/>
<circle class="st9" cx="324.8451" cy="227.4834" r="4.6196"/>
<circle class="st9" cx="284.5166" cy="187.1549" r="4.6196"/>
</svg>
